<?xml version="1.0" encoding="utf-8"?>
<!-- Svg Vector Icons : http://www.onlinewebfonts.com/icon -->
<!DOCTYPE svg PUBLIC "-//W3C//DTD SVG 1.1//EN" "http://www.w3.org/Graphics/SVG/1.1/DTD/svg11.dtd">
<svg version="1.1" xmlns="http://www.w3.org/2000/svg" xmlns:xlink="http://www.w3.org/1999/xlink" x="0px" y="0px" viewBox="0 0 1000 1000" enable-background="new 0 0 1000 1000" xml:space="preserve" fill="#1eb4cb">
<metadata> Svg Vector Icons : http://www.onlinewebfonts.com/icon </metadata>
<g><g transform="translate(0.000000,511.000000) scale(0.100000,-0.100000)"><path d="M4479.5,4987.3c-1446.4-161.2-2764.3-962.8-3559.4-2163.1C192.6,1726.3-62.3,421.5,201.3-885.4C558.5-2673.8,1941.7-4142,3725.8-4627.8c396.5-106.7,649.1-141.6,1134.9-156.8c540.2-15.3,877.9,19.6,1330.9,135.1c2021.5,516.3,3478.8,2204.5,3692.2,4278.2c32.7,309.3,13.1,958.5-34.8,1243.8c-145.9,867-498.8,1657.7-1039.1,2328.6c-305,376.9-808.1,816.9-1239.5,1084.8c-594.7,370.3-1348.4,625.2-2071.6,703.6C5254.9,5015.6,4716.9,5013.4,4479.5,4987.3z M4292.1,4386.1c-387.7-424.8-712.3-867-969.4-1324.4c-106.7-189.5-128.5-217.8-174.3-211.3c-139.4,15.3-1200.3,599-1193.7,657.9c2.2,26.1,291.9,250.5,522.8,405.2c309.3,206.9,731.9,413.9,1080.4,529.3c237.4,80.6,679.6,183,877.9,204.8c41.4,4.4,85,10.9,93.7,10.9C4538.3,4660.5,4431.5,4538.5,4292.1,4386.1z M5671,4157.3c376.8-418.2,623-749.3,875.7-1180.6c82.8-141.6,106.7-198.2,87.1-211.3c-98-61-751.5-198.2-1130.6-237.4c-348.5-34.9-326.7-43.6-326.7,106.7c0,124.2,2.2,130.7,76.2,176.4c233.1,143.8,250.5,520.6,32.7,705.8c-37,30.5-78.4,56.6-89.3,56.6c-10.9,0-19.6,222.2-19.6,535.9v535.9l137.2-119.8C5387.8,4460.1,5549,4294.6,5671,4157.3z M6021.7,4562.5c703.6-156.8,1424.6-522.8,1962.7-993.3c39.2-34.8,69.7-67.5,65.3-71.9c-4.4-4.4-106.7-71.9-226.6-152.5c-259.2-174.3-840.8-468.3-853.9-433.5c-21.8,63.2-363.8,612.1-487.9,786.4c-185.2,254.9-427,544.6-627.4,753.7c-111.1,115.5-150.3,167.7-122,167.7C5751.6,4619.1,5882.3,4593,6021.7,4562.5z M4806.2,3577.9c-13.1-4.4-52.3-32.7-89.3-63.2c-215.6-183-198.2-559.8,34.9-703.6c74.1-45.7,76.2-52.3,76.2-178.6v-130.7l-189.5,13.1c-387.7,30.5-1076.1,159-1106.6,206.9c-13.1,24,213.5,411.7,392.1,670.9c204.8,294.1,431.3,572.9,681.8,836.5l211.3,222.2l6.5-433.5C4828,3728.2,4821.5,3582.3,4806.2,3577.9z M5072,3253.3c78.4-69.7,37-180.8-69.7-180.8c-104.6,0-146,98-71.9,178.6C4974,3299.1,5019.7,3301.3,5072,3253.3z M1891.6,3137.9c241.8-172.1,599-374.7,890.9-501c132.9-56.6,244-108.9,250.5-115.4c6.5-4.4-28.3-108.9-78.4-230.9c-159-400.8-315.9-989-359.4-1352.7l-15.2-122l-139.4-71.9c-154.7-80.6-265.7-198.2-335.5-357.2l-45.7-102.4h-816.9H427.8l10.9,126.3c106.7,1095.7,453.1,1925.6,1141.4,2722.9c63.2,74.1,119.8,135.1,124.2,135.1C1706.5,3268.6,1791.4,3209.8,1891.6,3137.9z M8426.6,3133.5c662.2-758,1056.5-1696.9,1137.1-2701.1l10.9-148.1h-943.2H7686l-13.1,50.1c-6.5,26.1-13.1,102.4-13.1,167.7c0,161.2-78.4,679.6-141.6,949.7c-65.4,278.8-185.2,649.1-296.2,912.7c-45.8,113.3-85,211.3-85,215.7c0,4.4,132.9,76.2,294.1,154.7c270.1,132.9,795.1,457.4,827.8,511.9C8282.8,3286,8306.8,3270.8,8426.6,3133.5z M6936.6,2175.1c228.7-579.4,396.5-1337.5,396.5-1792.7v-98H6254.8H5176.5v947.6v947.6H5292c298.4,0,971.5,117.6,1311.3,228.7c85,28.3,167.7,50.1,185.2,52.3C6812.4,2462.6,6858.2,2375.5,6936.6,2175.1z M4165.8,2233.9c130.7-19.6,333.3-41.4,450.9-47.9l211.3-13.1v-945.4V284.3h-673.1H3484l-69.7,139.4c-82.8,167.7-222.2,298.4-381.2,359.4c-106.7,39.2-111.1,45.7-104.6,115.5c26.1,276.6,189.5,895.3,335.5,1259.1c37,89.3,74.1,183,82.8,209.1c17.4,43.6,19.6,43.6,300.6-26.1C3802,2301.4,4035.1,2253.5,4165.8,2233.9z M2906.7,469.5c161.2-69.7,246.2-189.5,248.3-357.2c2.2-352.9-422.6-527.2-662.2-272.3C2305.5,40.3,2366.5,345.3,2617,460.7C2723.7,510.8,2800,513,2906.7,469.5z M2124.7-203.6c78.4-161.2,220-298.4,359.4-350.7l93.7-37l26.1-187.3c52.3-374.7,196-906.2,355.1-1309.2c34.8-87.1,58.8-161.2,56.6-163.4c-4.4-2.2-113.3-52.3-246.1-108.9c-276.7-119.8-655.7-333.3-897.5-507.5c-93.7-65.3-180.8-124.2-193.9-130.7c-26.1-8.7-165.6,145.9-342,379C983.3-2153.2,669.6-1471.4,538.9-881.1c-39.2,183-69.7,387.7-100.2,692.7L427.8-64.2h814.7H2055L2124.7-203.6z M4828-976.9v-910.5l-226.5-15.3c-296.3-19.6-681.8-82.8-1004.2-165.5c-141.6-37-259.2-63.2-261.4-61c-24,30.5-193.9,516.3-250.5,707.9c-74.1,263.6-178.6,788.5-161.2,816.9c6.5,8.7,28.3,17.4,47.9,17.4c63.2,0,252.7,122,339.8,217.8c74.1,82.8,104.6,137.2,150.3,267.9c13.1,34.8,65.3,37,690.5,37H4828V-976.9z M7324.3-295.1c-34.8-544.6-193.9-1209-407.3-1720.9l-74.1-172.1l-13.1,143.8c-32.7,309.3-237.4,542.4-546.8,620.8c-322.4,82.8-662.2-76.2-808.1-374.7l-45.8-95.8h-126.3h-126.3v914.9v914.9H6257h1082.6L7324.3-295.1z M9568-155.7c-6.5-52.3-17.4-161.2-26.1-246.1c-56.7-647-342-1429-731.9-2014.9c-169.9-252.7-453.1-592.5-483.6-581.6c-13.1,6.5-102.4,65.4-198.2,135.1c-224.4,161.2-529.3,339.8-768.9,450.9c-104.6,47.9-191.7,91.5-196,93.7c-2.2,2.2,28.3,89.3,69.7,193.9c217.8,540.2,381.2,1202.4,416,1701.3c6.5,95.8,17.4,215.6,24,267.9l10.9,91.5h947.6h947.6L9568-155.7z M6285.3-1772c281-146,289.7-535.9,17.4-690.5c-106.7-58.8-311.5-52.3-403,17.5c-80.6,58.8-148.1,165.5-165.6,257c-30.5,156.8,71.9,352.9,215.7,416.1C6037-1732.8,6209.1-1735,6285.3-1772z M4828-3227.1v-1006.4L4695.1-4105c-313.7,307.1-721,821.2-962.8,1219.9c-111.1,183-233.1,409.5-233.1,433.5c0,17.4,215.7,74.1,501,130.7c241.8,50.1,551.1,89.3,758,98l69.7,2.2V-3227.1z M5359.5-2242.5c30.5-10.9,56.7-37,56.7-56.7c0-19.6,30.5-93.7,69.7-163.4c198.2-374.6,662.2-494.5,1023.8-267.9l84.9,54.5l-37-71.9c-224.4-435.7-943.2-1324.4-1298.3-1612l-82.8-65.4V-3323v1102.2h63.2C5274.6-2220.8,5329-2229.5,5359.5-2242.5z M3301-2808.9c281-501,649.1-1002,1047.8-1420.3c108.9-117.6,189.5-213.5,178.6-213.5c-69.7,0-568.5,95.8-738.5,141.6c-583.8,159-1189.4,472.7-1681.7,875.7c-100.2,80.6-185.2,156.8-185.2,167.7c-6.5,74.1,1076.1,684,1219.9,688.3C3155.1-2569.3,3226.9-2678.2,3301-2808.9z M7352.7-2787.1c300.6-154.6,734.1-433.5,729.7-470.5c-2.2-30.5-344.2-302.8-564.2-448.7c-261.4-174.3-795.1-433.5-1082.6-527.2c-250.5-80.6-653.5-174.3-694.9-161.2c-13.1,4.4,61,100.2,165.6,213.5c385.6,420.4,799.4,986.8,1002,1378.9c47.9,91.5,100.2,167.7,117.6,167.7C7041.2-2634.6,7189.3-2704.3,7352.7-2787.1z"/></g></g>
</svg>